<svg id="Layer_1" data-name="Layer 1" xmlns="http://www.w3.org/2000/svg" width="941.54" height="372.6" viewBox="0 0 941.54 372.6"><defs><style>.cls-1{fill-rule:evenodd;}</style></defs><path d="M691.21,221.19c1.58,2.52,5,4.41,11.34,4.41h.32a497.39,497.39,0,0,1,161,31.81,502.82,502.82,0,0,1,142,82.21l-2.52,3.14a503.61,503.61,0,0,0-141.1-81.57,496.44,496.44,0,0,0-159.37-31.81c-8.19.32-12.92-2.52-15.12-6a12.82,12.82,0,0,1-1.57-5.66,15.67,15.67,0,0,1,1.57-5,10.36,10.36,0,0,1,10.4-5.66c-8.2,4.41,3.14,11.65-6.94,14.17Z" transform="translate(-212.68 -196.31)"/><path d="M682.71,259.3h3.15a467.64,467.64,0,0,1,143.31,22.36,475.41,475.41,0,0,1,129.45,64.88l-3.78,5.67a457.14,457.14,0,0,0-269-86h-3.15Z" transform="translate(-212.68 -196.31)"/><path d="M682.71,353.79h3.15A375.49,375.49,0,0,1,874.52,404.5a379.54,379.54,0,0,1,138,139.21l-6,3.47A368.37,368.37,0,0,0,685.86,360.72h-3.15Z" transform="translate(-212.68 -196.31)"/><polygon class="cls-1" points="722.95 97.64 704.68 125.03 701.53 123.46 716.02 93.54 722.95 97.64"/><polygon class="cls-1" points="694.28 81.89 677.59 110.86 674.45 109.29 687.04 78.42 694.28 81.89"/><polygon class="cls-1" points="571.13 39.37 562.63 71.5 559.17 70.86 563.26 37.79 571.13 39.37"/><polygon class="cls-1" points="539.01 33.7 532.4 66.46 528.93 65.82 531.14 32.76 539.01 33.7"/><polygon class="cls-1" points="506.57 30.23 502.16 63.3 498.7 62.99 498.7 29.92 506.57 30.23"/><polygon class="cls-1" points="664.68 68.35 649.88 98.26 646.73 96.69 657.12 65.19 664.68 68.35"/><polygon class="cls-1" points="634.13 56.7 621.22 87.24 618.06 86.3 626.57 54.17 634.13 56.7"/><polygon class="cls-1" points="602.95 46.93 592.24 78.42 588.77 77.47 595.07 45.04 602.95 46.93"/><polygon class="cls-1" points="750.67 114.96 730.51 141.42 727.67 139.53 744.05 110.55 750.67 114.96"/><path class="cls-1" d="M924.92,417.42l-.32,5.34a3.11,3.11,0,0,1-1.89,2.52l-5,1.26a1.44,1.44,0,0,1-1.89-1.57l.32-5a3.1,3.1,0,0,1,1.89-2.51l5-1.26a1.38,1.38,0,0,1,1.89,1.26Z" transform="translate(-212.68 -196.31)"/><path class="cls-1" d="M940.35,430l-.63,5.35a3,3,0,0,1-2.21,2.52l-4.72.94c-1.26.32-1.89-.31-1.89-1.57l.31-5a3.62,3.62,0,0,1,2.21-2.51l5-1a1.4,1.4,0,0,1,1.89,1.27Z" transform="translate(-212.68 -196.31)"/><path class="cls-1" d="M955.16,443.55l-.95,5.35a2.68,2.68,0,0,1-2.21,2.22l-5,.93c-.94,0-1.88-.63-1.57-1.57l.63-5.35c0-.95,1.26-1.89,2.2-2.2l5-.95a1.58,1.58,0,0,1,1.9,1.57Z" transform="translate(-212.68 -196.31)"/><path class="cls-1" d="M969,457.72l-.94,5.35c0,1-1.26,1.9-2.21,1.9l-5,.63c-1.26.32-1.89-.31-1.89-1.57l1-5a3,3,0,0,1,2.52-2.2l5-.63a1.26,1.26,0,0,1,1.57,1.57Z" transform="translate(-212.68 -196.31)"/><path class="cls-1" d="M982.24,472.84l-.94,5.05a3.14,3.14,0,0,1-2.52,1.88l-5,.32c-1.26.31-1.89-.63-1.57-1.57l.94-5a3,3,0,0,1,2.53-2.2l5-.32c1.25,0,1.88.63,1.57,1.89Z" transform="translate(-212.68 -196.31)"/><path class="cls-1" d="M994.84,488.28l-1.26,5a3.2,3.2,0,0,1-2.83,1.88h-5c-.94,0-1.57-.63-1.26-1.57l1.26-5a2.65,2.65,0,0,1,2.52-1.89l5-.33a1.46,1.46,0,0,1,1.58,1.9Z" transform="translate(-212.68 -196.31)"/><path class="cls-1" d="M1006.49,504.34l-1.57,5a3.2,3.2,0,0,1-2.84,1.9l-4.73-.32a1.44,1.44,0,0,1-1.57-1.89l1.57-4.72a3,3,0,0,1,2.84-1.89h5c1.26,0,1.89.95,1.26,1.89Z" transform="translate(-212.68 -196.31)"/><path class="cls-1" d="M1017.51,521.34l-1.88,4.73a3,3,0,0,1-2.84,1.58l-5-.32c-1.26,0-1.58-.94-1.26-1.88l1.89-5.05a3,3,0,0,1,2.84-1.57l5,.31a1.66,1.66,0,0,1,1.25,2.2Z" transform="translate(-212.68 -196.31)"/><path d="M1091.85,475.36c7.87-13.54,21.1-16.06,32.75-5.35-13.23-10.71-6-16.38-29.92-23.62,53.54,0,55.12,80.63-.32,86.29-31.49,1-46.29-24.25-47.24-49.44,6-31.82-29.61-69-18.9-99.53,2.52-55.43-40.94-38.43-28.34-17.33-9.45-4.09-8.19-13.54-4.41-18.57a21.84,21.84,0,0,0-6.3,12.6v2.83a20.85,20.85,0,0,0,13.23,19.22,6.17,6.17,0,0,1-.32-2.22,7.46,7.46,0,0,1,7.56-7.55,7.21,7.21,0,0,1,7.25,7.55,7.13,7.13,0,0,1-7.25,7.25h0v.31a24.27,24.27,0,0,1-17.32-7.23h0a23.56,23.56,0,0,1-7.25-17.33v-3.15A29.69,29.69,0,0,1,992.32,345c4.72-4.72,11-7.23,17.32-6.29,48.19,6.29,3.15,69.29,43.46,99.84-7.87-16.38-22.36-56.69,1.58-72.13-9.45,8.2-6.93,20.16-2.52,33.08,2.52-64.25,46.93-37.17,25.83-11.66,9.13-33.07-28-26.45-20.47,26.77,3.46,9.77,4.41,13.54,3.46,22.05-1.58,15.43-3.46,29.93-2.83,42.52.94,39.06,38.11,49.77,60.15,27.72a33.75,33.75,0,0,0,9.45-23c-23.62,8.19-16.69-17-35.9-8.51ZM1067,471.27c-3.46-32.45,19.22-40,31.5-42.53a34.29,34.29,0,0,0-24.56-1.57c15.11-11,36.84-.31,44.72,4.1-3.79-13.85-25.83-16.07-17.33-35.59,3.47,13.54,35.28,3.46,28.66,39.05,56.07,59.84,6.62,138-63.62,111.5-90.39-37.17-65.19-184.88-112.75-184.88-11,.94-17.33,4.41-17.33,6.61-2.51,6.3,18.91,6.93,5.36,25.82.31-14.48-12.6-3.46-12.28-21.41-2.84.63-1.89,8.83-1.89,10.71-.32,25.51,30.86,24.25,29.29,3.46,6.61,11.66-.31,20.48-8.82,20.17,7.87,6.92,25.51.31,15.43-21.74,12.6,8.81,10.71,23.94,4.41,29-8.5,6.94-27.71,6.94-39-5.66-24.88-24.88-1-44.1-8.82-54.49,4.41.63,4.72,1.25,6,2.83,3.47-1.26,6.62-10.08.63-14.17,13.23.94,6.3,13.22,9.13,11.34,3.47-2.21,10.4-7.56,16.7-7.56,28.66-3.47,31.49,31.18,40,64.88,1.57-10.39,5.67-14.17,13.23-15.11-7.88,4.4-9.46,14.17-9.14,26.13,2.21-6.3,3.15-7.56,7.56-11.33-5.67,35,10.08,82.2,31.18,100.47-12-13.23-6.61-35.91.95-38.12-7.56,99.22,140.47,76.55,103.62-6.29-12.92-30.24-59.53-38.12-72.76,4.41Z" transform="translate(-212.68 -196.31)"/><path d="M1051.22,334.58a10.33,10.33,0,0,1,4.72-5,14.26,14.26,0,0,1,6.3-1.58,12.41,12.41,0,0,1,8.82,3.46,11.45,11.45,0,0,1,3.78,8.82,12.62,12.62,0,0,1-3.78,9.14,12.41,12.41,0,0,1-8.82,3.46,8.6,8.6,0,0,1-5.67-1.57,11.33,11.33,0,0,1-4.41-3.46A527.07,527.07,0,0,0,685.86,200.4h-3.15v-4.09h3.15A530.57,530.57,0,0,1,1055,345h.32a8.85,8.85,0,0,0,3.15,2.85,8.38,8.38,0,0,0,3.78.94,9.22,9.22,0,0,0,6-2.21,8.82,8.82,0,0,0,2.51-6.3,8.62,8.62,0,0,0-2.51-6c-10.71,9.76-9.14-4.1-17,.32Z" transform="translate(-212.68 -196.31)"/><path d="M682.71,266.23h-3.46a457.14,457.14,0,0,0-269,86l-3.78-5.67a475.55,475.55,0,0,1,129.45-64.88A467.64,467.64,0,0,1,679.25,259.3h3.46Z" transform="translate(-212.68 -196.31)"/><path d="M682.71,360.72h-3.46A368.37,368.37,0,0,0,358.62,547.18l-6-3.47a379.69,379.69,0,0,1,138-139.21,375.56,375.56,0,0,1,188.67-50.71h3.46Z" transform="translate(-212.68 -196.31)"/><path d="M367.75,543.71a361,361,0,0,1,311.5-177h6.61a361,361,0,0,1,311.49,177l-2.2,1.25A361.07,361.07,0,0,0,863.5,416.16a356.76,356.76,0,0,0-177.64-46.94h-6.61a357.63,357.63,0,0,0-177.64,46.94A363.39,363.39,0,0,0,370,545Z" transform="translate(-212.68 -196.31)"/><polygon class="cls-1" points="216.81 97.64 235.39 125.03 238.22 123.46 223.73 93.54 216.81 97.64"/><polygon class="cls-1" points="245.47 81.89 262.16 110.86 265.31 109.29 252.71 78.42 245.47 81.89"/><polygon class="cls-1" points="368.62 39.37 377.44 71.5 380.59 70.86 376.49 37.79 368.62 39.37"/><polygon class="cls-1" points="400.74 33.7 407.36 66.46 410.82 65.82 408.62 32.76 400.74 33.7"/><polygon class="cls-1" points="433.19 30.23 437.6 63.3 441.06 62.99 441.37 29.92 433.19 30.23"/><polygon class="cls-1" points="275.07 68.35 289.88 98.26 293.03 96.69 282.63 65.19 275.07 68.35"/><polygon class="cls-1" points="305.63 56.7 318.54 87.24 321.69 86.3 313.18 54.17 305.63 56.7"/><polygon class="cls-1" points="336.81 46.93 347.51 78.42 350.98 77.47 344.68 45.04 336.81 46.93"/><polygon class="cls-1" points="189.09 114.96 209.25 141.42 212.08 139.53 195.7 110.55 189.09 114.96"/><path class="cls-1" d="M456.25,405.44v5.36a3.12,3.12,0,0,0,1.9,2.51l4.72,1.58c1.26.31,1.89,0,1.89-1.26l.31-5a3.18,3.18,0,0,0-1.89-2.83l-4.72-1.58c-1.26-.31-2.21.32-2.21,1.26Z" transform="translate(-212.68 -196.31)"/><path class="cls-1" d="M440.19,417.42l.32,5.34a3.11,3.11,0,0,0,1.89,2.52l5,1.26a1.45,1.45,0,0,0,1.9-1.57l-.32-5a3.1,3.1,0,0,0-1.89-2.51l-4.72-1.26c-1.26-.33-2.21.3-2.21,1.26Z" transform="translate(-212.68 -196.31)"/><path class="cls-1" d="M424.76,430l.63,5.35a3,3,0,0,0,2.2,2.52l4.73.94c1.26.32,1.89-.31,1.89-1.57l-.32-5a3.59,3.59,0,0,0-2.2-2.51l-5-1a1.4,1.4,0,0,0-1.89,1.27Z" transform="translate(-212.68 -196.31)"/><path class="cls-1" d="M410.27,443.55l.63,5.35a2.67,2.67,0,0,0,2.2,2.22l5,.93c.95,0,1.89-.63,1.58-1.57l-.63-5.35c0-.95-1.26-1.89-2.2-2.2l-5.05-.95a1.26,1.26,0,0,0-1.57,1.57Z" transform="translate(-212.68 -196.31)"/><path class="cls-1" d="M396.09,457.72l1,5.35a2.73,2.73,0,0,0,2.52,1.9l4.73.63c1.26.32,1.88-.31,1.88-1.57l-.94-5a3,3,0,0,0-2.52-2.2l-5-.63a1.27,1.27,0,0,0-1.58,1.57Z" transform="translate(-212.68 -196.31)"/><path class="cls-1" d="M382.87,472.84l1.26,5.05c0,.94,1.26,1.88,2.52,1.88l4.73.32c1.25.31,1.88-.63,1.57-1.57l-.95-5a3,3,0,0,0-2.52-2.2l-5-.32c-1.26,0-1.89.63-1.57,1.89Z" transform="translate(-212.68 -196.31)"/><path class="cls-1" d="M370.27,488.28l1.57,5a2.75,2.75,0,0,0,2.53,1.88h5c.94,0,1.89-.63,1.57-1.57l-1.57-5a2.65,2.65,0,0,0-2.53-1.89l-5-.33a1.45,1.45,0,0,0-1.57,1.9Z" transform="translate(-212.68 -196.31)"/><path class="cls-1" d="M358.62,504.34l1.57,5a3.18,3.18,0,0,0,2.84,1.9l5-.32a1.39,1.39,0,0,0,1.26-1.89l-1.58-4.72a2.75,2.75,0,0,0-2.83-1.89h-5a1.39,1.39,0,0,0-1.26,1.89Z" transform="translate(-212.68 -196.31)"/><path class="cls-1" d="M347.59,521.34l1.89,4.73a3.75,3.75,0,0,0,2.84,1.58l5-.32c1.26,0,1.89-.94,1.26-1.88l-1.89-5.05a3,3,0,0,0-2.84-1.57l-5,.31a1.67,1.67,0,0,0-1.26,2.2Z" transform="translate(-212.68 -196.31)"/><path d="M313.89,334.58a10.38,10.38,0,0,0-4.72-5,14.26,14.26,0,0,0-6.3-1.58,12.41,12.41,0,0,0-8.82,3.46,11.45,11.45,0,0,0-3.78,8.82,12.62,12.62,0,0,0,3.78,9.14,12.41,12.41,0,0,0,8.82,3.46,8.6,8.6,0,0,0,5.67-1.57,11.4,11.4,0,0,0,4.41-3.46A527.07,527.07,0,0,1,679.25,200.4h3.46v-4.09h-3.46A530.62,530.62,0,0,0,310.11,345h0a13.42,13.42,0,0,1-3.46,2.85,8.38,8.38,0,0,1-3.78.94,9.17,9.17,0,0,1-6-2.21,8.79,8.79,0,0,1-2.53-6.3,8.6,8.6,0,0,1,2.53-6c10.7,9.76,9.13-4.1,17,.32Z" transform="translate(-212.68 -196.31)"/><path d="M673.9,221.19c-1.58,2.52-5,4.41-11.34,4.41h-.32a493.79,493.79,0,0,0-160.63,31.81,500.14,500.14,0,0,0-142.36,82.21l2.51,3.14a503.81,503.81,0,0,1,141.11-81.57,496.58,496.58,0,0,1,159.69-31.81c7.87.32,12.59-2.52,14.8-6a12.82,12.82,0,0,0,1.57-5.66,10.57,10.57,0,0,0-1.57-5c-1.89-3.46-5.36-6.29-10.08-5.66,7.87,4.41-3.46,11.65,6.62,14.17Z" transform="translate(-212.68 -196.31)"/><path d="M918.93,509.69l-57,46.61L913.58,504c1.89,1.88,3.46,3.77,5.35,5.66Zm-472.75,0,28,17L451.53,504c-1.57,1.88-3.46,3.77-5.35,5.66ZM657.52,407c-2.84.31-5.36.31-7.88.63l17.64,143.93Zm-29,3.46c-2.52.63-5,.95-7.56,1.57l29,141.11Zm-28.35,6.31-7.56,1.88,41.26,136.69Zm-27.72,8.49c-2.51,1-5,1.89-7.24,2.83l52,128.82ZM545.7,436.62c-2.51,1.26-4.72,2.2-7.24,3.47l62.68,118.74Zm-25.82,13.54c-2.21,1.26-4.41,2.85-6.62,4.1l68,104.89Zm-24.26,16.07a44.21,44.21,0,0,0-6.29,4.41l72.75,92Zm-23,17.95c-1.9,1.57-3.79,3.46-5.68,5L540,566.7Zm210.07-78.1h3.78L682.71,551l-4.1-144.88Zm24.88.94c2.84.31,5.36.31,7.88.63L697.83,551.58Zm29,3.46c2.52.63,5,.95,7.56,1.57l-29,141.11Zm28.35,6.31,7.55,1.88L731.21,555.36Zm27.71,8.49,7.56,2.83L747.91,556.93Zm27.09,11.34c2.2,1.26,4.41,2.2,6.93,3.47L764,558.83Zm25.51,13.54c2.2,1.26,4.41,2.85,6.62,4.1l-68,104.89Zm24.25,16.07a43.75,43.75,0,0,1,6.3,4.41l-72.75,92Zm23,17.95c1.88,1.57,3.78,3.46,5.67,5L825.07,566.7Z" transform="translate(-212.68 -196.31)"/><path d="M274.84,475.36c-7.56-13.54-20.79-16.06-32.76-5.35,13.54-10.71,6-16.38,30.24-23.62-53.86,0-55.12,80.63.32,86.29,31.18,1,46.29-24.25,47.24-49.44-6-31.82,29.6-69,18.9-99.53-2.53-55.43,40.94-38.43,28.34-17.33,9.45-4.09,8.19-13.54,4.41-18.57a21.84,21.84,0,0,1,6.3,12.6v2.83a20.87,20.87,0,0,1-13.23,19.22c0-1,.32-1.59.32-2.22a7.57,7.57,0,1,0-7.56,7.25h0v.31a24.27,24.27,0,0,0,17.32-7.23h0a24.85,24.85,0,0,0,7.24-17.33,9.88,9.88,0,0,0-.31-3.15A25.43,25.43,0,0,0,374.37,345,19.79,19.79,0,0,0,357,338.67c-47.87,6.29-2.83,69.29-43.15,99.84,7.56-16.38,22.36-56.69-1.57-72.13,9.45,8.2,6.93,20.16,2.51,33.08-2.51-64.25-46.92-37.17-26.14-11.66-8.82-33.07,28.35-26.45,20.8,26.77-3.47,9.77-4.73,13.54-3.79,22.05,1.89,15.43,3.47,29.93,3.16,42.52-1.27,39.06-38.12,49.77-60.17,27.72a32.38,32.38,0,0,1-9.44-23c23.62,8.19,16.69-17,35.59-8.51ZM300,471.27c3.47-32.45-19.21-40-31.8-42.53,7.55-3.14,15.74-4.4,24.88-1.57-15.44-11-36.86-.31-45,4.1,4.09-13.85,26.14-16.07,17.63-35.59-3.77,13.54-35.27,3.46-29,39.05-55.75,59.84-6.3,138,63.93,111.5,90.4-37.17,65.2-184.88,112.44-184.88,11.34.94,17.64,4.41,17.64,6.61,2.52,6.3-18.9,6.93-5.35,25.82-.32-14.48,12.6-3.46,12.28-21.41,2.84.63,1.89,8.83,1.89,10.71,0,25.51-30.87,24.25-29.29,3.46-6.93,11.66.32,20.48,8.82,20.17-7.87,6.92-25.51.31-15.43-21.74-12.6,8.81-10.71,23.94-4.41,29,8.18,6.94,27.72,6.94,39.05-5.66,24.88-24.88.95-44.1,8.82-54.49-4.41.63-5,1.25-6,2.83-3.47-1.26-6.62-10.08-.95-14.17-13.22.94-6,13.22-8.82,11.34-3.78-2.21-10.39-7.56-16.69-7.56-29-3.47-31.5,31.18-40,64.88-1.58-10.39-6-14.17-13.23-15.11,7.88,4.4,9.45,14.17,8.82,26.13-1.89-6.3-3.15-7.56-7.24-11.33,5.67,35-10.08,82.2-31.18,100.47,12-13.23,6.61-35.91-1-38.12,7.24,99.22-140.79,76.55-103.93-6.29,12.91-30.24,59.84-38.12,73.06,4.41Z" transform="translate(-212.68 -196.31)"/><path class="cls-1" d="M861.93,556.3l57-46.61c-1.89-1.89-3.46-3.78-5.35-5.66Zm11.33,12.61,60.16-42.52c-1.89-1.89-3.47-4.09-5-6Z" transform="translate(-212.68 -196.31)"/><path class="cls-1" d="M504.13,556.3l-57.32-46.61c1.88-1.89,3.78-3.78,5.35-5.66Zm-11.34,12.61-60.16-42.52c1.58-1.89,3.15-4.09,5-6Z" transform="translate(-212.68 -196.31)"/></svg>